<?xml version="1.0" encoding="utf-8"?>
<!-- Generator: Adobe Illustrator 16.0.2, SVG Export Plug-In . SVG Version: 6.00 Build 0)  -->
<!DOCTYPE svg PUBLIC "-//W3C//DTD SVG 1.1//EN" "http://www.w3.org/Graphics/SVG/1.1/DTD/svg11.dtd">
<svg version="1.1" id="Слой_1" xmlns="http://www.w3.org/2000/svg" xmlns:xlink="http://www.w3.org/1999/xlink" x="0px" y="0px"
	 width="206.957px" height="32.061px" viewBox="0.284 0.652 206.957 32.061" enable-background="new 0.284 0.652 206.957 32.061"
	 xml:space="preserve">
<g id="Слой_x0020_1">
	<path fill="#1A55A3" d="M4.167,0.652H0.284v32.061h3.883V17.49h2.069l7.115,15.223h4.309l-8.022-17.15l7.03-14.91h-4.28
		L6.236,13.578H4.167V0.652z M2.041,2.409H2.41v12.926h4.932l6.18-13.039h0.453L7.711,15.562l7.284,15.534H14.57L7.342,15.733H2.41
		v15.363H2.041V2.409z"/>
	<path id="_x31_" fill="#1A55A3" d="M18.85,32.712h3.94l1.247-8.362h6.718l1.219,8.362h3.969L31.181,0.538h-7.568L18.85,32.712z
		 M30.189,20.438h-5.585L26.958,4.45h0.821L30.189,20.438z M29.622,2.296l4.309,28.8h-0.396l-1.304-8.504h-9.723l-1.248,8.504
		h-0.396c1.304-8.9,2.977-19.928,4.309-28.8H29.622z M25.455,2.693l-2.862,19.503h9.609L29.339,2.693H25.455z"/>
	<path id="_x32_" fill="#1A55A3" d="M44.079,32.712V18.567h7.257v14.146h3.911V0.652h-3.911v14.174h-7.257V0.652h-3.884v32.061
		H44.079z M41.953,2.409h0.368v14.088h10.771V2.296h0.397v28.8h-0.397V16.895H42.321v14.201h-0.368V2.409z"/>
	<path id="_x33_" fill="#1A55A3" d="M64.46,32.712h3.912V4.054h5.726V0.538H58.819v3.516h5.641V32.712z M66.246,31.096V2.409h-5.812
		V2.041c4.252,0,7.739,0,12.02,0v0.368h-5.84v28.687H66.246z"/>
	<path id="_x34_" fill="#1A55A3" d="M88.328,0.538H78.236v32.174h3.912V22.167h6.236l4.932-5.188V5.471L88.328,0.538z
		 M82.148,18.255V4.479h4.592l2.608,2.607v8.334l-2.637,2.835H82.148z M79.994,2.296h7.653l3.912,3.912v10.063l-3.912,4.139H80.39
		v10.715h-0.396V2.296z M80.39,2.721v17.292h7.087l3.656-3.855V6.378l-3.656-3.657H80.39z"/>
	<path id="_x35_" fill="#1A55A3" d="M103.21,32.712l5.045-15.789l2.523-8.164h0.113l-0.198,8.504v15.449h3.911V0.652h-5.301
		l-3.628,11.509l-3.005,10.573h-0.142l0.425-10.771V0.652h-3.883v32.061H103.21z M100.828,30.756V2.409h0.369v27.949h0.481
		l8.873-27.893h2.296v28.63h-0.397V2.863h-1.587l-8.929,27.894H100.828z"/>
	<path id="_x36_" fill="#1A55A3" d="M134.249,0.652h-3.912v32.061h3.912V17.49h2.069l7.115,15.223h4.28l-8.022-17.15l7.059-14.91
		h-4.309l-6.123,12.927h-2.069V0.652z M132.094,2.409h0.396v12.926h4.933l6.18-13.039h0.425l-6.265,13.266l7.313,15.534h-0.453
		l-7.2-15.363h-4.933v15.363h-0.396V2.409z"/>
	<path id="_x37_" fill="#1A55A3" d="M151.172,29.112h-2.494v3.601h5.952l4.025-28.318h3.884v28.318h3.883V0.538h-11.14
		L151.172,29.112z M150.378,30.869h2.268l4.167-28.63h7.853v28.715h-0.369V2.693h-7.171l-4.11,28.573h-2.637V30.869z"/>
	<path id="_x38_" fill="#1A55A3" d="M179.348,15.988l-2.75-8.079l-2.409-7.37h-4.224l7.37,20.948l-3.516,11.226h4.11l10.488-32.174
		h-4.139l-2.522,7.342l-2.324,8.107H179.348z M176.655,31.096h-0.425l3.033-9.439l-6.775-19.53h0.426l6.576,18.907l6.037-18.879
		h0.426L176.655,31.096z"/>
	<path id="_x39_" fill="#1A55A3" d="M192.189,32.712h10.091l4.961-4.876V17.774l-4.933-5.188H196.1V4.45h10.233V0.538h-14.145
		V32.712z M201.401,30.586l3.657-3.657v-8.334l-3.657-3.854h-7.086v15.846H201.401z M200.636,16.497l2.664,2.835v6.859l-2.607,2.608
		H196.1V16.497H200.636z M193.946,30.954V2.296h10.63v0.396h-10.261v11.65h7.257l3.911,4.139v8.617l-3.911,3.855H193.946z"/>
</g>
</svg>
